<svg width="24" height="24" viewBox="0 0 24 24" fill="none" xmlns="http://www.w3.org/2000/svg">
<path d="M10.0959 6.98379C9.73066 6.84574 9.54649 6.43776 9.68451 6.07249L11.0509 2.45724C11.1889 2.09199 11.5969 1.90781 11.9621 2.04585L22.5434 6.04491C22.9087 6.18294 23.0928 6.59094 22.9548 6.95618L18.9557 17.5375C18.8177 17.9027 18.4097 18.0869 18.0445 17.9489L14.4292 16.5825C14.064 16.4445 13.8798 16.0365 14.0178 15.6712L16.1507 10.0279C16.2887 9.66265 16.1045 9.25465 15.7393 9.11662L10.0959 6.98379Z" fill="black"/>
<path d="M1.45724 10.8451C1.09199 10.7071 0.907808 10.2991 1.04585 9.93382L2.41219 6.31856C2.55023 5.95332 2.95822 5.76914 3.32346 5.90717L13.9048 9.90624C14.27 10.0443 14.4542 10.4523 14.3161 10.8175L10.3171 21.3988C10.179 21.764 9.77105 21.9482 9.40581 21.8102L5.79054 20.4438C5.42528 20.3058 5.2411 19.8978 5.37913 19.5326L7.51199 13.8892C7.65001 13.524 7.46584 13.116 7.10057 12.9779L1.45724 10.8451Z" fill="black"/>
</svg>
