<svg width="102" height="24" viewBox="0 0 102 24" fill="none" xmlns="http://www.w3.org/2000/svg">
<g clip-path="url(#clip0_1_12)">
<path d="M10.9796 6.0157C10.5388 5.84906 10.3165 5.35661 10.4831 4.91572L12.1323 0.551907C12.2989 0.11104 12.7914 -0.111281 13.2323 0.0553391L26.0045 4.88242C26.4453 5.04903 26.6676 5.54151 26.501 5.98237L21.6739 18.7546C21.5073 19.1954 21.0149 19.4177 20.574 19.2511L16.2102 17.6019C15.7693 17.4353 15.547 16.9428 15.7136 16.5019L18.288 9.69009C18.4547 9.24923 18.2323 8.75675 17.7915 8.59014L10.9796 6.0157Z" fill="black"/>
<path d="M0.551907 10.6768C0.11104 10.5102 -0.111281 10.0177 0.0553392 9.57685L1.70459 5.21303C1.87121 4.77217 2.36368 4.54986 2.80454 4.71647L15.5767 9.54355C16.0176 9.71016 16.2399 10.2026 16.0733 10.6435L11.2462 23.4157C11.0796 23.8565 10.5871 24.0789 10.1463 23.9123L5.78244 22.263C5.34154 22.0964 5.11924 21.6039 5.28584 21.163L7.86032 14.3512C8.02692 13.9104 7.80461 13.4179 7.36372 13.2513L0.551907 10.6768Z" fill="black"/>
<path d="M41.3947 22.0749C39.3143 22.0749 37.5995 21.566 36.2494 20.548C34.8994 19.53 34.125 18.1801 33.9258 16.4982H37.4776C37.6546 17.2506 38.0752 17.9034 38.7391 18.4567C39.403 18.9878 40.277 19.2534 41.3615 19.2534C42.4237 19.2534 43.1981 19.0321 43.6851 18.5895C44.1721 18.1469 44.4154 17.6379 44.4154 17.0625C44.4154 16.2216 44.0725 15.6572 43.3864 15.3695C42.7225 15.0597 41.793 14.7831 40.598 14.5397C39.6685 14.3405 38.7391 14.0749 37.8096 13.743C36.9024 13.411 36.1389 12.9463 35.5191 12.3488C34.9216 11.7291 34.6229 10.8993 34.6229 9.85917C34.6229 8.42073 35.1762 7.22571 36.2826 6.27411C37.389 5.3004 38.9382 4.81353 40.9299 4.81353C42.7666 4.81353 44.2494 5.25612 45.3781 6.14133C46.5289 7.02654 47.2038 8.27686 47.403 9.89237H44.0171C43.9065 9.18422 43.5746 8.63096 43.0212 8.23262C42.4901 7.83428 41.7708 7.63511 40.8635 7.63511C39.9782 7.63511 39.2924 7.82322 38.8054 8.19942C38.3185 8.55351 38.0752 9.01824 38.0752 9.59361C38.0752 10.169 38.4071 10.6227 39.071 10.9546C39.7572 11.2866 40.6534 11.5853 41.7598 11.8509C42.8662 12.0943 43.8843 12.382 44.8137 12.7139C45.7654 13.0238 46.5289 13.4885 47.1042 14.1081C47.6795 14.7278 47.9673 15.6351 47.9673 16.8301C47.9895 18.335 47.403 19.5853 46.2079 20.5812C45.0352 21.577 43.4305 22.0749 41.3947 22.0749ZM59.5098 22.0749C57.8942 22.0749 56.4559 21.7208 55.1945 21.0127C53.9553 20.2824 52.9814 19.2755 52.2733 17.992C51.5653 16.7084 51.2111 15.2146 51.2111 13.5106C51.2111 11.7845 51.554 10.2686 52.2401 8.96291C52.9482 7.65725 53.9221 6.63926 55.1613 5.90896C56.4227 5.17867 57.8833 4.81353 59.543 4.81353C61.1586 4.81353 62.5638 5.17867 63.7588 5.90896C64.9538 6.61711 65.8833 7.56872 66.5472 8.76374C67.2111 9.95876 67.543 11.2755 67.543 12.7139C67.543 12.9353 67.5321 13.1787 67.5098 13.4442C67.5098 13.6877 67.4989 13.9643 67.4767 14.2741H54.6634C54.7739 15.8675 55.2941 17.0846 56.2235 17.9256C57.1752 18.7444 58.2707 19.1538 59.5098 19.1538C60.5057 19.1538 61.3356 18.9325 61.9995 18.4899C62.6856 18.0251 63.1945 17.4055 63.5264 16.631H67.0451C66.6026 18.1801 65.7173 19.4747 64.3895 20.5148C63.084 21.5549 61.4574 22.0749 59.5098 22.0749ZM59.5098 7.7015C58.3371 7.7015 57.2967 8.05559 56.3895 8.76374C55.4823 9.44978 54.9289 10.4899 54.7298 11.8841H64.0244C63.958 10.6005 63.5042 9.58256 62.6634 8.83013C61.8225 8.07769 60.7713 7.7015 59.5098 7.7015ZM71.1938 21.6766V5.21187H74.3142L74.5797 8.09984C75.0889 7.08184 75.8302 6.28516 76.8038 5.70979C77.7996 5.11228 78.9396 4.81353 80.2229 4.81353C82.2146 4.81353 83.7747 5.43318 84.9034 6.67245C86.0542 7.91172 86.6295 9.75959 86.6295 12.216V21.6766H83.144V12.5812C83.144 9.39444 81.8385 7.80108 79.227 7.80108C77.9215 7.80108 76.837 8.26581 75.9739 9.19527C75.1331 10.1247 74.7125 11.4525 74.7125 13.1787V21.6766H71.1938ZM97.6785 21.6766C96.0629 21.6766 94.7792 21.2893 93.8279 20.5148C92.8762 19.7181 92.4005 18.3128 92.4005 16.299V8.16623H89.5789V5.21187H92.4005L92.832 1.0293H95.9191V5.21187H100.566V8.16623H95.9191V16.299C95.9191 17.2063 96.107 17.837 96.4835 18.1911C96.8818 18.5231 97.5567 18.689 98.5084 18.689H100.4V21.6766H97.6785Z" fill="black"/>
</g>
<defs>
<clipPath id="clip0_1_12">
<rect width="102.008" height="24" fill="white"/>
</clipPath>
</defs>
</svg>
