<svg width="332" height="90" viewBox="0 0 3324 903" fill="none" xmlns="http://www.w3.org/2000/svg">
    <g clip-path="url(#clip0_261_5)">
        <path d="M1520 807C1370 807 1289 732 1281 627L1391 622C1400 681 1438 718 1520 718C1586 718 1628 698 1628 651C1628 612 1608 595 1501 577C1343 549 1294 503 1294 416C1294 319 1369 251 1507 251C1643 251 1715 329 1730 426L1621 432C1611 377 1572 340 1506 340C1437 340 1404 370 1404 412C1404 459 1436 478 1523 492C1688 519 1738 563 1738 650C1738 750 1647 807 1520 807ZM2072.06 807C1918.06 807 1820.06 697 1820.06 529C1820.06 361 1918.06 251 2069.06 251C2214.06 251 2313.06 354 2313.06 533V560H1931.06C1936.06 664 1989.06 716 2073.06 716C2136.06 716 2178.06 685 2195.06 635L2305.06 642C2277.06 741 2190.06 807 2072.06 807ZM2200.06 480C2194.06 386 2142.06 341 2069.06 341C1994.06 341 1943.06 390 1931.06 480H2200.06ZM2426.26 795V263H2523.26L2526.26 355C2554.26 283 2615.26 251 2687.26 251C2806.26 251 2867.26 337 2867.26 453V795H2761.26V485C2761.26 391 2732.26 340 2658.26 340C2583.26 340 2532.26 391 2532.26 485V795H2426.26ZM3190.8 795C3089.8 795 3042.8 751 3042.8 651V350H2961.8V263H3042.8V138H3148.8V263H3289.8V350H3148.8V643C3148.8 693 3169.8 708 3213.8 708H3289.8V795H3190.8Z" fill="black" />
        <path d="M413.439 226.528C396.838 220.254 388.466 201.709 394.74 185.108L456.845 20.7828C463.119 4.18135 481.664 -4.19043 498.265 2.08387L979.217 183.854C995.819 190.128 1004.19 208.672 997.916 225.274L816.146 706.226C809.872 722.827 791.328 731.199 774.726 724.925L610.401 662.82C593.799 656.546 585.428 638.001 591.702 621.4L688.646 364.892C694.92 348.291 686.548 329.746 669.947 323.472L413.439 226.528Z" fill="black" />
        <path d="M20.7828 402.048C4.18136 395.774 -4.19043 377.229 2.08387 360.628L64.1885 196.303C70.4628 179.701 89.0073 171.33 105.609 177.604L586.561 359.374C603.162 365.648 611.534 384.192 605.26 400.794L423.49 881.746C417.216 898.347 398.671 906.719 382.07 900.445L217.744 838.34C201.143 832.066 192.771 813.521 199.046 796.92L295.989 540.412C302.264 523.811 293.892 505.266 277.291 498.992L20.7828 402.048Z" fill="black" />
    </g>
    <defs>
        <clipPath id="clip0_261_5">
            <rect width="3324" height="903" fill="white" />
        </clipPath>
    </defs>
</svg>